<svg width="30" height="34" viewBox="0 0 30 34" fill="none" xmlns="http://www.w3.org/2000/svg">
<g clip-path="url(#clip0_3_67)">
<path d="M14.9776 33.1431L3.14532 29.8584L0.508545 0.283813H29.4822L26.8426 29.8538L14.9776 33.1431Z" fill="#264DE4"/>
<path d="M24.5829 27.9708L26.8385 2.70197H14.9954V30.6289L24.5829 27.9708Z" fill="#2965F1"/>
<path d="M6.55328 13.6707L6.87838 17.2979H14.9954V13.6707H6.55328Z" fill="#EBEBEB"/>
<path d="M5.90009 6.32922L6.22981 9.95646H14.9954V6.32922H5.90009Z" fill="#EBEBEB"/>
<path d="M14.9954 23.091L14.9795 23.0952L10.9398 22.0045L10.6816 19.1116H7.04047L7.54864 24.8068L14.9787 26.8694L14.9954 26.8648V23.091Z" fill="#EBEBEB"/>
<path d="M23.4142 13.6708L24.069 6.32922H14.9828V9.95646H20.0939L19.7639 13.6708H14.9828V17.2979H19.4493L19.0283 22.0021L14.9828 23.094V26.8677L22.4188 24.8068L22.4734 24.194L23.3257 14.6448L23.4142 13.6708Z" fill="white"/>
</g>
<defs>
<clipPath id="clip0_3_67">
<rect width="30" height="33" fill="white" transform="translate(0 0.246735)"/>
</clipPath>
</defs>
</svg>
